<svg xmlns="http://www.w3.org/2000/svg" viewBox="0 0 839.19 967"><defs><style>.cls-1{fill:#e38c09;}.cls-2{fill:#3498db;}</style></defs><g id="Layer_2" data-name="Layer 2"><g id="Logo"><g id="MONOGRAM"><polygon id="Center_Dash" class="cls-1" points="259 484.08 270 459.08 569 459.08 580 483.08 568 510.08 270 510.08 259 484.08"/><polygon id="V_Lower" class="cls-2" points="0 0.08 418.69 966.5 839 0.08 788.69 0.5 418.69 851.5 50.69 0.5 0 0.08"/><polygon id="A_Upper" class="cls-2" points="0.19 967 420.19 0 838.19 967 788.19 967 420.19 115 50.19 967 0.19 967"/><polygon id="L_Lower" class="cls-2" points="839 0.08 839.19 967 133.19 967 153.19 916 788.19 916 788.19 21 839 0.08"/><polygon id="L_Lower-2" data-name="L_Lower" class="cls-2" points="0 0.08 0.19 967 706.19 967 686.19 916 51.19 916 51.19 21 0 0.08"/></g></g></g></svg>